<?xml version="1.0" encoding="utf-8"?>
<!-- Generator: Adobe Illustrator 21.0.2, SVG Export Plug-In . SVG Version: 6.00 Build 0)  -->
<svg version="1.1" id="Layer_1" xmlns="http://www.w3.org/2000/svg" xmlns:xlink="http://www.w3.org/1999/xlink" x="0px" y="0px"
	 viewBox="0 0 372.8 632" style="enable-background:new 0 0 372.8 632;" xml:space="preserve">
<style type="text/css">
	.st0{fill:none;stroke:#535353;stroke-width:104;stroke-miterlimit:10;}
	.st1{fill:none;stroke:#DBDBDB;stroke-width:2;stroke-miterlimit:10;stroke-dasharray:10,7;}
	.st2{fill:none;stroke:url(#Shadow_1_);stroke-width:90;stroke-miterlimit:10;}
	.st3{fill:none;stroke:#FFDA00;stroke-width:2;stroke-miterlimit:10;}
	.st4{fill:none;}
	.st5{opacity:0.12;enable-background:new    ;}
	.st6{fill:#FF3030;}
	.st7{opacity:0.41;fill:#231F20;enable-background:new    ;}
	.st8{fill:#231F20;}
</style>
<g id="Track">
	<path id="Full" class="st0" d="M281.5,540.6L281.5,540.6c-52.5,52.5-137.6,52.5-190.1,0l0,0C32.8,482,40.6,384.9,107.9,336.5
		L246.1,237c51.1-36.8,57.1-110.6,12.6-155.1l0,0C218.8,42,154.1,42,114.3,81.9l0,0C69.8,126.4,75.8,200.2,126.9,237l138,99.5
		C332.2,384.9,340,482,281.5,540.6z"/>
	<path id="Full_sep_1" class="st1" d="M118,249.2c-27.9-20.1-45.5-51.3-48.3-85.6s9.6-67.9,33.9-92.3C125.7,49.2,155.1,37,186.4,37
		s60.7,12.2,82.8,34.3c24.3,24.3,36.7,58,33.9,92.3s-20.4,65.5-48.3,85.6L212.1,280l-95.4,68.7C88.2,369.2,70.3,401,67.4,436
		c-2.8,35,9.8,69.3,34.6,94.1c46.6,46.6,122.3,46.6,168.9,0c24.8-24.8,37.4-59.1,34.6-94.1s-20.8-66.8-49.3-87.3L118,249.2z"/>
	<path id="Full_sep_2" class="st1" d="M135.5,224.8c-20.8-15-33.9-38.2-35.9-63.7c-2.1-25.5,7.1-50.5,25.2-68.6
		C141.3,76,163.1,67,186.4,67s45.2,9.1,61.6,25.5c18.1,18.1,27.3,43.1,25.2,68.6c-2.1,25.5-15.2,48.7-35.9,63.7L160.7,280
		l-61.6,44.3C63.5,349.9,41,389.8,37.5,433.5c-3.5,43.8,12.2,86.7,43.3,117.7c29.1,29.1,67.4,43.7,105.7,43.7s76.5-14.6,105.7-43.7
		c31-31,46.8-73.9,43.3-117.7s-26-83.6-61.6-109.2L212.1,280L135.5,224.8z"/>
	
		<linearGradient id="Shadow_1_" gradientUnits="userSpaceOnUse" x1="128.1812" y1="122.1312" x2="242.7188" y2="236.6688" gradientTransform="matrix(1 0 0 -1 0 460.05)">
		<stop  offset="6.952495e-02" style="stop-color:#000000;stop-opacity:0"/>
		<stop  offset="0.5111" style="stop-color:#000000;stop-opacity:0.5"/>
		<stop  offset="0.9245" style="stop-color:#000000;stop-opacity:0"/>
	</linearGradient>
	<line id="Shadow" class="st2" x1="246.1" y1="237" x2="124.8" y2="324.3"/>
	<g id="Track_outline">
		<path class="st3" d="M291.2,300c42.7,30.7,69.7,78.5,74,131s-14.6,104.1-51.9,141.4l0,0c-35,35-80.9,52.5-126.9,52.5
			c-45.9,0-91.9-17.5-126.9-52.5C22.3,535.1,3.3,483.6,7.6,431c4.3-52.5,31.2-100.3,74-131.1l138.2-99.5
			c13.6-9.8,22.2-25.1,23.6-41.8c1.4-17-4.5-32.9-16.5-44.9C216.1,102.9,201.7,97,186.5,97l0,0c-15.2,0-29.5,5.9-40.3,16.7
			c-12.1,12.1-17.9,28-16.6,45c1.4,16.8,10,32,23.6,41.8"/>
		<path class="st3" d="M100.6,273.5C65.5,248.3,43.4,209,39.9,165.9s12-85.3,42.6-115.8C110.2,22.3,147.1,7,186.4,7h0.1
			c39.3,0,76.3,15.3,104.1,43.1c30.5,30.5,46.1,72.8,42.6,115.8c-3.5,43.1-25.6,82.3-60.7,107.6L134.2,373
			c-21.3,15.3-34.8,39.1-36.9,65.3c-2.1,26.2,7.3,51.9,25.9,70.5c34.9,34.9,91.6,34.9,126.4,0c18.6-18.6,28-44.3,25.9-70.5
			s-15.6-49.9-36.9-65.3"/>
	</g>
	<line id="Patch" class="st0" x1="126.7" y1="237" x2="264.9" y2="336.5"/>
	<line id="Patch_sep_1" class="st1" x1="256.2" y1="348.7" x2="118" y2="249.2"/>
	<polyline id="Patch_sep_2" class="st1" points="273.7,324.3 212.1,280 135.5,224.8 	"/>
	<path id="Track_3" class="st4" d="M110.2,261.4c-31.5-22.7-51.4-57.9-54.5-96.6S66.5,88.2,94,60.7c25-25,58.1-38.7,93.4-38.7
		s68.5,13.7,93.4,38.7c27.5,27.5,41.4,65.4,38.3,104.1s-23,73.9-54.5,96.6l-138.2,99.5c-24.9,17.9-40.6,45.7-43.1,76.3
		s8.5,60.6,30.2,82.3c40.7,40.7,107,40.7,147.7,0c21.7-21.7,32.7-51.7,30.2-82.3s-18.2-58.4-43.1-76.3L110.2,261.4z"/>
	<path id="Track_2" class="st4" d="M282.5,540.6L282.5,540.6c-52.5,52.5-137.6,52.5-190.1,0l0,0C33.8,482,41.6,384.9,108.9,336.5
		L247.1,237c51.1-36.8,57.1-110.6,12.6-155.1l0,0C219.8,42,155.1,42,115.3,81.9l0,0C70.8,126.4,76.8,200.2,127.9,237l138,99.5
		C333.2,384.9,341,482,282.5,540.6z"/>
	<path id="Track_1" class="st4" d="M229.5,212.7c17.2-12.4,28-31.6,29.8-52.7s-5.9-41.8-20.9-56.8c-13.6-13.6-31.7-21.1-51-21.1
		s-37.4,7.5-51,21.1c-15,15-22.6,35.7-20.9,56.8s12.6,40.3,29.8,52.7l138.2,99.5c39.2,28.2,63.9,72,67.8,120.2
		s-13.5,95.4-47.6,129.5C271.6,594,229.5,610,187.4,610s-84.2-16-116.3-48.1c-34.2-34.2-51.5-81.4-47.6-129.5
		c3.9-48.2,28.6-92,67.8-120.2L229.5,212.7z"/>
	<g id="Patch_outlines">
		<line class="st3" x1="238.6" y1="373" x2="100.4" y2="273.5"/>
		<line class="st3" x1="153" y1="200.5" x2="291.2" y2="300"/>
	</g>
</g>
<g id="Car">
	<g id="Car_inner">
		<path id="Car_shadow" class="st5" d="M6.9,17.4H-6.9L-9.4,6.1c-0.1-0.6-0.2-1.2-0.1-1.9l2.7-21.7H6.9L9.6,4.2
			c0.1,0.6,0,1.3-0.1,1.9L6.9,17.4z"/>
		<path id="Car_body" class="st6" d="M4.7,16.6h-9.6l-1.8-9.5C-6.7,6.6-6.7,6-6.7,5.5l1.9-18.3h9.6L6.7,5.5c0.1,0.5,0,1.1-0.1,1.6
			L4.7,16.6z"/>
		<polygon id="Car_window" class="st7" points="3.9,1.3 -0.1,0.3 -3.9,1.3 -3.9,5.9 3.9,5.9 	"/>
		<g id="Front_wheels">
			<rect id="Left_wheel" x="-10.4" y="-8.1" class="st8" width="2.6" height="6.4"/>
			<rect id="Right_whwwl" x="7.9" y="-8.1" class="st8" width="2.6" height="6.4"/>
		</g>
		<g id="Rear_wheels">
			<rect x="-10.4" y="8.2" class="st8" width="2.6" height="6.4"/>
			<rect x="7.9" y="8.2" class="st8" width="2.6" height="6.4"/>
		</g>
	</g>
</g>
</svg>
