<?xml version="1.0" encoding="utf-8"?>
<!-- Generator: Adobe Illustrator 21.0.2, SVG Export Plug-In . SVG Version: 6.00 Build 0)  -->
<svg version="1.1" id="Layer_1" xmlns="http://www.w3.org/2000/svg" xmlns:xlink="http://www.w3.org/1999/xlink" x="0px" y="0px"
	 width="358.8px" height="618px" viewBox="0 0 358.8 618" style="enable-background:new 0 0 358.8 618;" xml:space="preserve">
<style type="text/css">
	.st0{fill:none;stroke:#4F4F4F;stroke-width:90;stroke-miterlimit:10;}
	.st1{fill:none;stroke:#DBDBDB;stroke-miterlimit:10;stroke-dasharray:5,7;}
	.st2{fill:none;stroke:url(#Shadow_gradient);stroke-width:90;stroke-miterlimit:10;}
	.st3{fill:none;}
</style>
<path id="Full" class="st0" d="M274.5,533.6L274.5,533.6c-52.5,52.5-137.6,52.5-190.1,0l0,0C25.8,475,33.6,377.9,100.9,329.5
	L239.1,230c51.1-36.8,57.1-110.6,12.6-155.1l0,0C211.8,35,147.1,35,107.3,74.9l0,0C62.8,119.4,68.8,193.2,119.9,230l138,99.5
	C325.2,377.9,333,475,274.5,533.6z"/>
<path id="Full_sep_1" class="st1" d="M111,242.2c-27.9-20.1-45.5-51.3-48.3-85.6c-2.8-34.3,9.6-67.9,33.9-92.3
	C118.7,42.2,148.1,30,179.4,30s60.7,12.2,82.8,34.3c24.3,24.3,36.7,58,33.9,92.3s-20.4,65.5-48.3,85.6L205.1,273l-95.4,68.7
	C81.2,362.2,63.3,394,60.4,429c-2.8,35,9.8,69.3,34.6,94.1c46.6,46.6,122.3,46.6,168.9,0c24.8-24.8,37.4-59.1,34.6-94.1
	s-20.8-66.8-49.3-87.3L111,242.2z"/>
<path id="Full_sep_2" class="st1" d="M128.5,217.8c-20.8-15-33.9-38.2-35.9-63.7c-2.1-25.5,7.1-50.5,25.2-68.6
	C134.3,69,156.1,60,179.4,60s45.2,9.1,61.6,25.5c18.1,18.1,27.3,43.1,25.2,68.6c-2.1,25.5-15.2,48.7-35.9,63.7L153.7,273l-61.6,44.3
	C56.5,342.9,34,382.8,30.5,426.5c-3.5,43.8,12.2,86.7,43.3,117.7c29.1,29.1,67.4,43.7,105.7,43.7s76.5-14.6,105.7-43.7
	c31-31,46.8-73.9,43.3-117.7s-26-83.6-61.6-109.2L205.1,273L128.5,217.8z"/>
<linearGradient id="Shadow_gradient" gradientUnits="userSpaceOnUse" x1="121.1826" y1="287.1062" x2="235.7202" y2="401.6438" gradientTransform="matrix(1 0 0 -1 0 618.05)">
	<stop  offset="6.952495e-02" style="stop-color:#000000;stop-opacity:0"/>
	<stop  offset="0.5111" style="stop-color:#000000;stop-opacity:0.5"/>
	<stop  offset="0.9245" style="stop-color:#000000;stop-opacity:0"/>
</linearGradient>
<line id="Shadow" class="st2" x1="239.1" y1="230" x2="117.8" y2="317.3"/>
<line id="Patch" class="st0" x1="119.7" y1="230" x2="257.9" y2="329.5"/>
<line id="Patch_sep_1" class="st1" x1="249.2" y1="341.7" x2="111" y2="242.2"/>
<polyline id="Patch_sep_2" class="st1" points="266.7,317.3 205.1,273 128.5,217.8 "/>
<path id="Track_3" class="st3" d="M103.2,254.4c-31.5-22.7-51.4-57.9-54.5-96.6S59.5,81.2,87,53.7c25-25,58.1-38.7,93.4-38.7
	s68.5,13.7,93.4,38.7c27.5,27.5,41.4,65.4,38.3,104.1c-3.1,38.7-23,73.9-54.5,96.6l-138.2,99.5c-24.9,17.9-40.6,45.7-43.1,76.3
	s8.5,60.6,30.2,82.3c40.7,40.7,107,40.7,147.7,0c21.7-21.7,32.7-51.7,30.2-82.3s-18.2-58.4-43.1-76.3L103.2,254.4z"/>
<path id="Track_2" class="st3" d="M275.5,533.6L275.5,533.6c-52.5,52.5-137.6,52.5-190.1,0l0,0C26.8,475,34.6,377.9,101.9,329.5
	L240.1,230c51.1-36.8,57.1-110.6,12.6-155.1l0,0C212.8,35,148.1,35,108.3,74.9l0,0C63.8,119.4,69.8,193.2,120.9,230l138,99.5
	C326.2,377.9,334,475,275.5,533.6z"/>
<path id="Track_1" class="st3" d="M222.5,205.7c17.2-12.4,28-31.6,29.8-52.7s-5.9-41.8-20.9-56.8c-13.6-13.6-31.7-21.1-51-21.1
	s-37.4,7.5-51,21.1c-15,15-22.6,35.7-20.9,56.8s12.6,40.3,29.8,52.7l138.2,99.5c39.2,28.2,63.9,72,67.8,120.2
	c3.9,48.2-13.5,95.4-47.6,129.5C264.6,587,222.5,603,180.4,603s-84.2-16-116.3-48.1c-34.2-34.2-51.5-81.4-47.6-129.5
	c3.9-48.2,28.6-92,67.8-120.2L222.5,205.7z"/>
</svg>
